<?xml version="1.0" encoding="UTF-8"?>
<svg xmlns="http://www.w3.org/2000/svg" version="1.1" viewBox="0 0 900 900">
  <defs>
    <style>
      .cls-1 {
        fill: #717fff;
      }

      .cls-2 {
        fill: #517be5;
      }

      .cls-3 {
        fill: #6f61d1;
      }

      .cls-4 {
        fill: #00e943;
      }

      .cls-5 {
        fill: #467fd3;
      }

      .cls-6 {
        fill: #88a2ff;
      }

      .cls-7 {
        fill: #89acff;
      }

      .cls-8 {
        fill: #cc7dff;
      }

      .cls-9 {
        fill: #b56fff;
      }

      .cls-10 {
        fill: #6b97ff;
      }

      .cls-11 {
        fill: #8667e5;
      }

      .cls-12 {
        fill: #738eff;
      }

      .cls-13 {
        fill: #3a70bf;
      }

      .cls-14 {
        fill: #6b69e2;
      }

      .cls-15 {
        fill: #2e56bc;
      }
    </style>
  </defs>
  <!-- Generator: Adobe Illustrator 28.7.5, SVG Export Plug-In . SVG Version: 1.2.0 Build 176)  -->
  <g>
    <g id="Layer_1">
      <polygon class="cls-12" points="371.74 0 318.7 49.91 279.71 138.82 371.74 138.82 395.13 68.63 371.74 0"/>
      <polygon class="cls-10" points="279.71 138.82 279.71 276.4 321.82 294.8 371.74 346.27 371.74 138.82 279.71 138.82"/>
      <polygon class="cls-6" points="395.13 68.63 440.37 116.98 371.74 138.82 395.13 68.63"/>
      <polygon class="cls-1" points="440.37 116.98 532.4 230.85 532.4 614.56 371.74 346.27 371.74 138.82 440.37 116.98"/>
      <polygon class="cls-14" points="371.74 0 521.04 103.73 616.63 218.37 532.4 230.85 440.37 116.98 395.13 68.63 371.74 0"/>
      <polygon class="cls-3" points="616.63 218.37 616.63 270.4 541.76 329.12 532.4 614.56 532.4 230.85 616.63 218.37"/>
      <polygon class="cls-9" points="540.92 354.45 585.03 354.45 585.03 295.18 541.76 329.12 540.92 354.45"/>
      <polygon class="cls-8" points="540.92 354.45 532.4 566.36 586.99 575.56 585.03 354.45 540.92 354.45"/>
      <path class="cls-4" d="M585.03,295.18l31.6-24.78-31.6,24.78Z"/>
      <polygon class="cls-11" points="616.63 270.4 585.03 295.18 585.03 354.45 692.82 360.69 616.63 270.4"/>
      <polygon class="cls-3" points="616.63 270.4 724.1 360.69 692.82 360.69 616.63 270.4"/>
      <polygon class="cls-9" points="585.03 354.45 692.82 360.69 692.82 585.39 657.18 609.88 586.99 575.56 585.03 354.45"/>
      <polygon class="cls-8" points="724.1 360.69 728.5 547.49 692.82 585.39 692.82 360.69 724.1 360.69"/>
      <polygon class="cls-7" points="321.82 294.8 315.59 333.8 409.17 503.25 429.9 482.17 505.65 585.39 532.4 614.56 371.74 346.27 321.82 294.8"/>
      <polygon class="cls-13" points="315.59 333.8 321.82 294.8 279.71 276.4 229.8 252.69 315.59 333.8"/>
      <polygon class="cls-5" points="229.8 252.69 146.28 282.79 166.54 360.69 264.31 354.45 315.59 333.8 229.8 252.69"/>
      <polygon class="cls-13" points="146.28 282.79 115.45 354.45 166.54 360.69 146.28 282.79"/>
      <polygon class="cls-7" points="312.47 636.4 166.54 360.69 115.45 354.45 115.45 390.73 245.39 645.75 312.47 636.4"/>
      <path class="cls-4" d="M166.54,360.69"/>
      <polygon class="cls-2" points="264.31 354.45 166.54 360.69 312.47 636.4 336.53 575.56 409.17 503.25 315.59 333.8 264.31 354.45"/>
      <polygon class="cls-1" points="394.33 517.24 409.17 562.49 458.09 562.49 480.92 575.56 498.44 575.56 429.9 482.17 394.33 517.24"/>
      <polygon class="cls-14" points="409.17 562.49 394.33 636.4 312.47 636.4 336.53 575.56 394.33 517.24 409.17 562.49"/>
      <polygon class="cls-12" points="498.44 575.56 494.2 636.4 394.33 636.4 409.17 562.49 458.09 562.49 480.92 575.56 498.44 575.56"/>
      <polygon class="cls-8" points="532.4 614.56 612.82 636.4 657.18 609.88 586.99 575.56 532.4 566.36 532.4 614.56"/>
      <polygon class="cls-7" points="498.44 575.56 532.4 614.56 494.2 636.4 498.44 575.56"/>
      <polygon class="cls-15" points="532.4 614.56 526.5 636.4 494.2 636.4 532.4 614.56"/>
      <polygon class="cls-9" points="532.4 614.56 612.82 636.4 526.5 636.4 532.4 614.56"/>
      <polygon class="cls-3" points="312.47 636.4 245.39 645.75 165.85 680.07 131.53 745.58 143.23 787.98 207.96 828.5 230.93 854.92 288.29 846.11 337.42 862.56 379.54 879.72 452.85 879.72 526.16 900 586.99 879.72 669.66 884.4 728.93 865.68 777.28 823.57 814.72 761.18 825.64 723.74 814.72 667.59 792.88 609.88 744.36 585.39 728.5 547.49 613.51 636.4 532.4 614.56 493.4 636.4 388.9 622.36 312.47 636.4"/>
      <polygon class="cls-7" points="131.53 745.58 198.6 712.82 265.19 729.2 337.42 712.82 423.99 645.75 493.4 636.4 388.9 622.36 245.39 645.75 165.85 680.07 131.53 745.58"/>
      <polygon class="cls-1" points="131.53 745.58 198.6 712.82 238.76 745.58 275.81 779.17 349.9 795.03 394.33 828.5 452.07 851.4 526.16 900 452.85 879.72 379.54 879.72 312.47 854.21 288.29 846.11 230.93 854.92 207.96 828.5 143.23 787.98 131.53 745.58"/>
      <polygon class="cls-8" points="655.62 603.64 692.82 636.4 740.83 683.97 710.66 723.74 692.82 780.93 670.36 837.31 586.99 879.72 669.66 884.4 728.93 865.68 777.28 823.57 814.72 761.18 825.64 723.74 816.28 669.15 792.88 609.88 744.36 585.39 728.5 547.49 655.62 603.64"/>
      <polygon class="cls-11" points="452.07 851.4 513.3 832.02 540.92 789.74 612.82 779.17 670.36 756.27 710.66 723.74 692.2 781.72 670.36 837.31 586.99 879.72 526.16 900 452.07 851.4"/>
      <polygon class="cls-14" points="275.81 779.17 337.42 752.75 423.99 752.75 462.21 695.67 532.4 683.97 612.82 655.86 740.83 683.97 693.22 636.06 655.62 603.64 613.51 636.4 532.4 614.56 493.4 636.4 423.99 645.75 337.42 712.82 265.19 729.2 198.6 712.82 275.81 779.17"/>
      <polygon class="cls-10" points="532.4 614.56 462.21 695.67 440.37 779.17 394.33 828.5 349.9 795.03 275.81 779.17 198.6 712.82 265.19 729.2 337.42 712.82 423.99 645.75 532.4 614.56"/>
    </g>
  </g>
</svg>